<mxfile host="app.diagrams.net" agent="Mozilla/5.0 (Windows NT 10.0; Win64; x64) AppleWebKit/537.36 (KHTML, like Gecko) Chrome/133.0.0.0 Safari/537.36 OPR/118.0.0.0" version="27.0.6">
  <diagram name="Pagina-1" id="7U3MJlx111H15FDupJX0">
    <mxGraphModel dx="1178" dy="673" grid="1" gridSize="10" guides="1" tooltips="1" connect="1" arrows="1" fold="1" page="1" pageScale="1" pageWidth="827" pageHeight="1169" math="0" shadow="0">
      <root>
        <mxCell id="0" />
        <mxCell id="1" parent="0" />
        <mxCell id="Xlf4CUtRPp9jhKxFkze6-1" value="Progetto PaleoFit" style="whiteSpace=wrap;strokeWidth=2;" vertex="1" parent="1">
          <mxGeometry x="6270" y="20" width="184" height="54" as="geometry" />
        </mxCell>
        <mxCell id="Xlf4CUtRPp9jhKxFkze6-2" value="1. Project Management" style="whiteSpace=wrap;strokeWidth=2;" vertex="1" parent="1">
          <mxGeometry x="1023" y="124" width="260" height="78" as="geometry" />
        </mxCell>
        <mxCell id="Xlf4CUtRPp9jhKxFkze6-3" value="2. Sviluppo Applicazione Web" style="whiteSpace=wrap;strokeWidth=2;" vertex="1" parent="1">
          <mxGeometry x="6232" y="124" width="260" height="78" as="geometry" />
        </mxCell>
        <mxCell id="Xlf4CUtRPp9jhKxFkze6-4" value="3. Business Plan" style="whiteSpace=wrap;strokeWidth=2;" vertex="1" parent="1">
          <mxGeometry x="11225" y="124" width="260" height="78" as="geometry" />
        </mxCell>
        <mxCell id="Xlf4CUtRPp9jhKxFkze6-5" value="1.1 Pianificazione Iniziale" style="whiteSpace=wrap;strokeWidth=2;" vertex="1" parent="1">
          <mxGeometry x="297" y="264" width="244" height="54" as="geometry" />
        </mxCell>
        <mxCell id="Xlf4CUtRPp9jhKxFkze6-6" value="1.2 Analisi Requisiti" style="whiteSpace=wrap;strokeWidth=2;" vertex="1" parent="1">
          <mxGeometry x="1031" y="264" width="200" height="54" as="geometry" />
        </mxCell>
        <mxCell id="Xlf4CUtRPp9jhKxFkze6-7" value="1.3 Diagramma di Gantt" style="whiteSpace=wrap;strokeWidth=2;" vertex="1" parent="1">
          <mxGeometry x="1907" y="264" width="232" height="54" as="geometry" />
        </mxCell>
        <mxCell id="Xlf4CUtRPp9jhKxFkze6-8" value="1.1.1 Definizione Obiettivi" style="whiteSpace=wrap;strokeWidth=2;" vertex="1" parent="1">
          <mxGeometry x="20" y="392" width="250" height="54" as="geometry" />
        </mxCell>
        <mxCell id="Xlf4CUtRPp9jhKxFkze6-9" value="1.1.2 Stima Risorse" style="whiteSpace=wrap;strokeWidth=2;" vertex="1" parent="1">
          <mxGeometry x="320" y="392" width="197" height="54" as="geometry" />
        </mxCell>
        <mxCell id="Xlf4CUtRPp9jhKxFkze6-10" value="1.1.3 Timeline Preliminare" style="whiteSpace=wrap;strokeWidth=2;" vertex="1" parent="1">
          <mxGeometry x="567" y="392" width="251" height="54" as="geometry" />
        </mxCell>
        <mxCell id="Xlf4CUtRPp9jhKxFkze6-11" value="1.2.1 Raccolta Requisiti Funzionali" style="whiteSpace=wrap;strokeWidth=2;" vertex="1" parent="1">
          <mxGeometry x="868" y="380" width="260" height="78" as="geometry" />
        </mxCell>
        <mxCell id="Xlf4CUtRPp9jhKxFkze6-12" value="1.2.2 Raccolta Requisiti Non Funzionali" style="whiteSpace=wrap;strokeWidth=2;" vertex="1" parent="1">
          <mxGeometry x="1178" y="380" width="260" height="78" as="geometry" />
        </mxCell>
        <mxCell id="Xlf4CUtRPp9jhKxFkze6-13" value="1.3.1 Definizione Task" style="whiteSpace=wrap;strokeWidth=2;" vertex="1" parent="1">
          <mxGeometry x="1488" y="392" width="217" height="54" as="geometry" />
        </mxCell>
        <mxCell id="Xlf4CUtRPp9jhKxFkze6-14" value="1.3.2 Sequenziamento Attività" style="whiteSpace=wrap;strokeWidth=2;" vertex="1" parent="1">
          <mxGeometry x="1755" y="380" width="260" height="78" as="geometry" />
        </mxCell>
        <mxCell id="Xlf4CUtRPp9jhKxFkze6-15" value="1.3.3 Stima Durata" style="whiteSpace=wrap;strokeWidth=2;" vertex="1" parent="1">
          <mxGeometry x="2065" y="392" width="195" height="54" as="geometry" />
        </mxCell>
        <mxCell id="Xlf4CUtRPp9jhKxFkze6-16" value="1.3.4 Implementazione Gantt Project" style="whiteSpace=wrap;strokeWidth=2;" vertex="1" parent="1">
          <mxGeometry x="2309" y="380" width="260" height="78" as="geometry" />
        </mxCell>
        <mxCell id="Xlf4CUtRPp9jhKxFkze6-17" value="2.1 Progettazione" style="whiteSpace=wrap;strokeWidth=2;" vertex="1" parent="1">
          <mxGeometry x="2892" y="264" width="187" height="54" as="geometry" />
        </mxCell>
        <mxCell id="Xlf4CUtRPp9jhKxFkze6-18" value="2.2 Implementazione Core" style="whiteSpace=wrap;strokeWidth=2;" vertex="1" parent="1">
          <mxGeometry x="3967" y="264" width="249" height="54" as="geometry" />
        </mxCell>
        <mxCell id="Xlf4CUtRPp9jhKxFkze6-19" value="2.3 Funzionalità di Tracciamento" style="whiteSpace=wrap;strokeWidth=2;" vertex="1" parent="1">
          <mxGeometry x="6232" y="252" width="260" height="78" as="geometry" />
        </mxCell>
        <mxCell id="Xlf4CUtRPp9jhKxFkze6-20" value="2.4 Ottimizzazione" style="whiteSpace=wrap;strokeWidth=2;" vertex="1" parent="1">
          <mxGeometry x="7968" y="264" width="195" height="54" as="geometry" />
        </mxCell>
        <mxCell id="Xlf4CUtRPp9jhKxFkze6-21" value="2.5 Deployment" style="whiteSpace=wrap;strokeWidth=2;" vertex="1" parent="1">
          <mxGeometry x="9010" y="264" width="173" height="54" as="geometry" />
        </mxCell>
        <mxCell id="Xlf4CUtRPp9jhKxFkze6-22" value="2.1.1 Design Database" style="whiteSpace=wrap;strokeWidth=2;" vertex="1" parent="1">
          <mxGeometry x="2619" y="392" width="218" height="54" as="geometry" />
        </mxCell>
        <mxCell id="Xlf4CUtRPp9jhKxFkze6-23" value="2.1.2 Design UI/UX" style="whiteSpace=wrap;strokeWidth=2;" vertex="1" parent="1">
          <mxGeometry x="2888" y="392" width="195" height="54" as="geometry" />
        </mxCell>
        <mxCell id="Xlf4CUtRPp9jhKxFkze6-24" value="2.1.3 Architettura Sistema" style="whiteSpace=wrap;strokeWidth=2;" vertex="1" parent="1">
          <mxGeometry x="3133" y="392" width="249" height="54" as="geometry" />
        </mxCell>
        <mxCell id="Xlf4CUtRPp9jhKxFkze6-25" value="2.2.1 Sistema Autenticazione" style="whiteSpace=wrap;strokeWidth=2;" vertex="1" parent="1">
          <mxGeometry x="3432" y="380" width="260" height="78" as="geometry" />
        </mxCell>
        <mxCell id="Xlf4CUtRPp9jhKxFkze6-26" value="2.2.2 Gestione Utenti" style="whiteSpace=wrap;strokeWidth=2;" vertex="1" parent="1">
          <mxGeometry x="3984" y="392" width="215" height="54" as="geometry" />
        </mxCell>
        <mxCell id="Xlf4CUtRPp9jhKxFkze6-27" value="2.2.3 Gestione Allenamenti" style="whiteSpace=wrap;strokeWidth=2;" vertex="1" parent="1">
          <mxGeometry x="4678" y="392" width="255" height="54" as="geometry" />
        </mxCell>
        <mxCell id="Xlf4CUtRPp9jhKxFkze6-28" value="2.2.1.1 Registrazione" style="whiteSpace=wrap;strokeWidth=2;" vertex="1" parent="1">
          <mxGeometry x="3195" y="520" width="212" height="54" as="geometry" />
        </mxCell>
        <mxCell id="Xlf4CUtRPp9jhKxFkze6-29" value="2.2.1.2 Login/Logout" style="whiteSpace=wrap;strokeWidth=2;" vertex="1" parent="1">
          <mxGeometry x="3457" y="520" width="211" height="54" as="geometry" />
        </mxCell>
        <mxCell id="Xlf4CUtRPp9jhKxFkze6-30" value="2.2.1.3 Verifica Email" style="whiteSpace=wrap;strokeWidth=2;" vertex="1" parent="1">
          <mxGeometry x="3718" y="520" width="215" height="54" as="geometry" />
        </mxCell>
        <mxCell id="Xlf4CUtRPp9jhKxFkze6-31" value="2.2.2.1 Profilo Utente" style="whiteSpace=wrap;strokeWidth=2;" vertex="1" parent="1">
          <mxGeometry x="3983" y="520" width="217" height="54" as="geometry" />
        </mxCell>
        <mxCell id="Xlf4CUtRPp9jhKxFkze6-32" value="2.2.3.1 Gestione Sessioni" style="whiteSpace=wrap;strokeWidth=2;" vertex="1" parent="1">
          <mxGeometry x="4250" y="520" width="240" height="54" as="geometry" />
        </mxCell>
        <mxCell id="Xlf4CUtRPp9jhKxFkze6-33" value="2.2.3.2 Catalogo Esercizi" style="whiteSpace=wrap;strokeWidth=2;" vertex="1" parent="1">
          <mxGeometry x="4539" y="520" width="238" height="54" as="geometry" />
        </mxCell>
        <mxCell id="Xlf4CUtRPp9jhKxFkze6-34" value="2.2.3.3 Esercizi in Sessione" style="whiteSpace=wrap;strokeWidth=2;" vertex="1" parent="1">
          <mxGeometry x="4827" y="520" width="254" height="54" as="geometry" />
        </mxCell>
        <mxCell id="Xlf4CUtRPp9jhKxFkze6-35" value="2.2.3.4 Serie Esercizi" style="whiteSpace=wrap;strokeWidth=2;" vertex="1" parent="1">
          <mxGeometry x="5131" y="520" width="211" height="54" as="geometry" />
        </mxCell>
        <mxCell id="Xlf4CUtRPp9jhKxFkze6-36" value="2.3.1 Tracciamento Peso" style="whiteSpace=wrap;strokeWidth=2;" vertex="1" parent="1">
          <mxGeometry x="5474" y="392" width="235" height="54" as="geometry" />
        </mxCell>
        <mxCell id="Xlf4CUtRPp9jhKxFkze6-37" value="2.3.2 Check Fisico con Foto" style="whiteSpace=wrap;strokeWidth=2;" vertex="1" parent="1">
          <mxGeometry x="6235" y="392" width="257" height="54" as="geometry" />
        </mxCell>
        <mxCell id="Xlf4CUtRPp9jhKxFkze6-38" value="2.3.3 Obiettivi Fitness" style="whiteSpace=wrap;strokeWidth=2;" vertex="1" parent="1">
          <mxGeometry x="7262" y="392" width="219" height="54" as="geometry" />
        </mxCell>
        <mxCell id="Xlf4CUtRPp9jhKxFkze6-39" value="2.3.1.1 UI Peso" style="whiteSpace=wrap;strokeWidth=2;" vertex="1" parent="1">
          <mxGeometry x="5392" y="520" width="168" height="54" as="geometry" />
        </mxCell>
        <mxCell id="Xlf4CUtRPp9jhKxFkze6-40" value="2.3.1.2 CRUD Peso" style="whiteSpace=wrap;strokeWidth=2;" vertex="1" parent="1">
          <mxGeometry x="5610" y="520" width="192" height="54" as="geometry" />
        </mxCell>
        <mxCell id="Xlf4CUtRPp9jhKxFkze6-41" value="2.3.2.1 Gestione Check" style="whiteSpace=wrap;strokeWidth=2;" vertex="1" parent="1">
          <mxGeometry x="5852" y="520" width="227" height="54" as="geometry" />
        </mxCell>
        <mxCell id="Xlf4CUtRPp9jhKxFkze6-42" value="2.3.2.2 Upload Foto" style="whiteSpace=wrap;strokeWidth=2;" vertex="1" parent="1">
          <mxGeometry x="6129" y="520" width="203" height="54" as="geometry" />
        </mxCell>
        <mxCell id="Xlf4CUtRPp9jhKxFkze6-43" value="2.3.2.3 Visualizzazione" style="whiteSpace=wrap;strokeWidth=2;" vertex="1" parent="1">
          <mxGeometry x="6381" y="520" width="224" height="54" as="geometry" />
        </mxCell>
        <mxCell id="Xlf4CUtRPp9jhKxFkze6-44" value="2.3.2.4 Confronto Progressi" style="whiteSpace=wrap;strokeWidth=2;" vertex="1" parent="1">
          <mxGeometry x="6656" y="520" width="256" height="54" as="geometry" />
        </mxCell>
        <mxCell id="Xlf4CUtRPp9jhKxFkze6-45" value="2.3.3.1 Visualizzazione Obiettivi" style="whiteSpace=wrap;strokeWidth=2;" vertex="1" parent="1">
          <mxGeometry x="6961" y="508" width="260" height="78" as="geometry" />
        </mxCell>
        <mxCell id="Xlf4CUtRPp9jhKxFkze6-46" value="2.3.3.2 CRUD Obiettivi" style="whiteSpace=wrap;strokeWidth=2;" vertex="1" parent="1">
          <mxGeometry x="7271" y="520" width="223" height="54" as="geometry" />
        </mxCell>
        <mxCell id="Xlf4CUtRPp9jhKxFkze6-47" value="2.3.3.3 Monitoraggio Auto" style="whiteSpace=wrap;strokeWidth=2;" vertex="1" parent="1">
          <mxGeometry x="7544" y="520" width="245" height="54" as="geometry" />
        </mxCell>
        <mxCell id="Xlf4CUtRPp9jhKxFkze6-48" value="2.4.1 Responsive Design" style="whiteSpace=wrap;strokeWidth=2;" vertex="1" parent="1">
          <mxGeometry x="7530" y="392" width="231" height="54" as="geometry" />
        </mxCell>
        <mxCell id="Xlf4CUtRPp9jhKxFkze6-49" value="2.4.2 Miglioramenti UI" style="whiteSpace=wrap;strokeWidth=2;" vertex="1" parent="1">
          <mxGeometry x="7811" y="392" width="219" height="54" as="geometry" />
        </mxCell>
        <mxCell id="Xlf4CUtRPp9jhKxFkze6-50" value="2.4.3 Testing e Debug" style="whiteSpace=wrap;strokeWidth=2;" vertex="1" parent="1">
          <mxGeometry x="8081" y="392" width="214" height="54" as="geometry" />
        </mxCell>
        <mxCell id="Xlf4CUtRPp9jhKxFkze6-51" value="2.4.4 Performance" style="whiteSpace=wrap;strokeWidth=2;" vertex="1" parent="1">
          <mxGeometry x="8345" y="392" width="193" height="54" as="geometry" />
        </mxCell>
        <mxCell id="Xlf4CUtRPp9jhKxFkze6-52" value="2.5.1 Configurazione Hosting" style="whiteSpace=wrap;strokeWidth=2;" vertex="1" parent="1">
          <mxGeometry x="8587" y="380" width="260" height="78" as="geometry" />
        </mxCell>
        <mxCell id="Xlf4CUtRPp9jhKxFkze6-53" value="2.5.2 Deploy" style="whiteSpace=wrap;strokeWidth=2;" vertex="1" parent="1">
          <mxGeometry x="8897" y="392" width="150" height="54" as="geometry" />
        </mxCell>
        <mxCell id="Xlf4CUtRPp9jhKxFkze6-54" value="2.5.3 Testing Finale" style="whiteSpace=wrap;strokeWidth=2;" vertex="1" parent="1">
          <mxGeometry x="9098" y="392" width="200" height="54" as="geometry" />
        </mxCell>
        <mxCell id="Xlf4CUtRPp9jhKxFkze6-55" value="2.5.4 Rilascio v1.0" style="whiteSpace=wrap;strokeWidth=2;" vertex="1" parent="1">
          <mxGeometry x="9348" y="392" width="192" height="54" as="geometry" />
        </mxCell>
        <mxCell id="Xlf4CUtRPp9jhKxFkze6-56" value="3.1 Analisi di Mercato" style="whiteSpace=wrap;strokeWidth=2;" vertex="1" parent="1">
          <mxGeometry x="9892" y="264" width="214" height="54" as="geometry" />
        </mxCell>
        <mxCell id="Xlf4CUtRPp9jhKxFkze6-57" value="3.2 Piano Finanziario" style="whiteSpace=wrap;strokeWidth=2;" vertex="1" parent="1">
          <mxGeometry x="10827" y="264" width="210" height="54" as="geometry" />
        </mxCell>
        <mxCell id="Xlf4CUtRPp9jhKxFkze6-58" value="3.3 Strategia di Marketing" style="whiteSpace=wrap;strokeWidth=2;" vertex="1" parent="1">
          <mxGeometry x="11799" y="264" width="246" height="54" as="geometry" />
        </mxCell>
        <mxCell id="Xlf4CUtRPp9jhKxFkze6-59" value="3.4 Piano Operativo" style="whiteSpace=wrap;strokeWidth=2;" vertex="1" parent="1">
          <mxGeometry x="12665" y="264" width="201" height="54" as="geometry" />
        </mxCell>
        <mxCell id="Xlf4CUtRPp9jhKxFkze6-60" value="3.1.1 Analisi Competitiva" style="whiteSpace=wrap;strokeWidth=2;" vertex="1" parent="1">
          <mxGeometry x="9589" y="392" width="240" height="54" as="geometry" />
        </mxCell>
        <mxCell id="Xlf4CUtRPp9jhKxFkze6-61" value="3.1.2 Target Audience" style="whiteSpace=wrap;strokeWidth=2;" vertex="1" parent="1">
          <mxGeometry x="9879" y="392" width="216" height="54" as="geometry" />
        </mxCell>
        <mxCell id="Xlf4CUtRPp9jhKxFkze6-62" value="3.1.3 SWOT Analysis" style="whiteSpace=wrap;strokeWidth=2;" vertex="1" parent="1">
          <mxGeometry x="10145" y="392" width="204" height="54" as="geometry" />
        </mxCell>
        <mxCell id="Xlf4CUtRPp9jhKxFkze6-63" value="3.2.1 Budget Iniziale" style="whiteSpace=wrap;strokeWidth=2;" vertex="1" parent="1">
          <mxGeometry x="10399" y="392" width="208" height="54" as="geometry" />
        </mxCell>
        <mxCell id="Xlf4CUtRPp9jhKxFkze6-64" value="3.2.2 Proiezioni Revenue" style="whiteSpace=wrap;strokeWidth=2;" vertex="1" parent="1">
          <mxGeometry x="10657" y="392" width="237" height="54" as="geometry" />
        </mxCell>
        <mxCell id="Xlf4CUtRPp9jhKxFkze6-65" value="3.2.3 Break-even Analysis" style="whiteSpace=wrap;strokeWidth=2;" vertex="1" parent="1">
          <mxGeometry x="10944" y="392" width="243" height="54" as="geometry" />
        </mxCell>
        <mxCell id="Xlf4CUtRPp9jhKxFkze6-66" value="3.2.4 Strategia Pricing" style="whiteSpace=wrap;strokeWidth=2;" vertex="1" parent="1">
          <mxGeometry x="11237" y="392" width="220" height="54" as="geometry" />
        </mxCell>
        <mxCell id="Xlf4CUtRPp9jhKxFkze6-67" value="3.3.1 Canali di Marketing" style="whiteSpace=wrap;strokeWidth=2;" vertex="1" parent="1">
          <mxGeometry x="11506" y="392" width="240" height="54" as="geometry" />
        </mxCell>
        <mxCell id="Xlf4CUtRPp9jhKxFkze6-68" value="3.3.2 Piano Promozione" style="whiteSpace=wrap;strokeWidth=2;" vertex="1" parent="1">
          <mxGeometry x="11796" y="392" width="228" height="54" as="geometry" />
        </mxCell>
        <mxCell id="Xlf4CUtRPp9jhKxFkze6-69" value="3.3.3 User Acquisition" style="whiteSpace=wrap;strokeWidth=2;" vertex="1" parent="1">
          <mxGeometry x="12074" y="392" width="216" height="54" as="geometry" />
        </mxCell>
        <mxCell id="Xlf4CUtRPp9jhKxFkze6-70" value="3.4.1 Risorse Necessarie" style="whiteSpace=wrap;strokeWidth=2;" vertex="1" parent="1">
          <mxGeometry x="12341" y="392" width="233" height="54" as="geometry" />
        </mxCell>
        <mxCell id="Xlf4CUtRPp9jhKxFkze6-71" value="3.4.2 Timeline Implementazione" style="whiteSpace=wrap;strokeWidth=2;" vertex="1" parent="1">
          <mxGeometry x="12624" y="380" width="260" height="78" as="geometry" />
        </mxCell>
        <mxCell id="Xlf4CUtRPp9jhKxFkze6-72" value="3.4.3 Milestones Business" style="whiteSpace=wrap;strokeWidth=2;" vertex="1" parent="1">
          <mxGeometry x="12934" y="392" width="241" height="54" as="geometry" />
        </mxCell>
        <mxCell id="Xlf4CUtRPp9jhKxFkze6-73" value="" style="curved=1;startArrow=none;endArrow=block;exitX=0;exitY=0.52;entryX=0.5;entryY=0;rounded=0;" edge="1" parent="1" source="Xlf4CUtRPp9jhKxFkze6-1" target="Xlf4CUtRPp9jhKxFkze6-2">
          <mxGeometry relative="1" as="geometry">
            <Array as="points">
              <mxPoint x="1153" y="99" />
            </Array>
          </mxGeometry>
        </mxCell>
        <mxCell id="Xlf4CUtRPp9jhKxFkze6-74" value="" style="curved=1;startArrow=none;endArrow=block;exitX=0.5;exitY=1;entryX=0.5;entryY=0;rounded=0;" edge="1" parent="1" source="Xlf4CUtRPp9jhKxFkze6-1" target="Xlf4CUtRPp9jhKxFkze6-3">
          <mxGeometry relative="1" as="geometry">
            <Array as="points" />
          </mxGeometry>
        </mxCell>
        <mxCell id="Xlf4CUtRPp9jhKxFkze6-75" value="" style="curved=1;startArrow=none;endArrow=block;exitX=1;exitY=0.52;entryX=0.5;entryY=0;rounded=0;" edge="1" parent="1" source="Xlf4CUtRPp9jhKxFkze6-1" target="Xlf4CUtRPp9jhKxFkze6-4">
          <mxGeometry relative="1" as="geometry">
            <Array as="points">
              <mxPoint x="11355" y="99" />
            </Array>
          </mxGeometry>
        </mxCell>
        <mxCell id="Xlf4CUtRPp9jhKxFkze6-76" value="" style="curved=1;startArrow=none;endArrow=block;exitX=0;exitY=0.65;entryX=0.5;entryY=0;rounded=0;" edge="1" parent="1" source="Xlf4CUtRPp9jhKxFkze6-2" target="Xlf4CUtRPp9jhKxFkze6-5">
          <mxGeometry relative="1" as="geometry">
            <Array as="points">
              <mxPoint x="418" y="227" />
            </Array>
          </mxGeometry>
        </mxCell>
        <mxCell id="Xlf4CUtRPp9jhKxFkze6-77" value="" style="curved=1;startArrow=none;endArrow=block;exitX=0.45;exitY=1;entryX=0.5;entryY=0;rounded=0;" edge="1" parent="1" source="Xlf4CUtRPp9jhKxFkze6-2" target="Xlf4CUtRPp9jhKxFkze6-6">
          <mxGeometry relative="1" as="geometry">
            <Array as="points">
              <mxPoint x="1131" y="227" />
            </Array>
          </mxGeometry>
        </mxCell>
        <mxCell id="Xlf4CUtRPp9jhKxFkze6-78" value="" style="curved=1;startArrow=none;endArrow=block;exitX=1;exitY=0.62;entryX=0.5;entryY=0;rounded=0;" edge="1" parent="1" source="Xlf4CUtRPp9jhKxFkze6-2" target="Xlf4CUtRPp9jhKxFkze6-7">
          <mxGeometry relative="1" as="geometry">
            <Array as="points">
              <mxPoint x="2023" y="227" />
            </Array>
          </mxGeometry>
        </mxCell>
        <mxCell id="Xlf4CUtRPp9jhKxFkze6-79" value="" style="curved=1;startArrow=none;endArrow=block;exitX=0.02;exitY=1;entryX=0.5;entryY=0;rounded=0;" edge="1" parent="1" source="Xlf4CUtRPp9jhKxFkze6-5" target="Xlf4CUtRPp9jhKxFkze6-8">
          <mxGeometry relative="1" as="geometry">
            <Array as="points">
              <mxPoint x="145" y="355" />
            </Array>
          </mxGeometry>
        </mxCell>
        <mxCell id="Xlf4CUtRPp9jhKxFkze6-80" value="" style="curved=1;startArrow=none;endArrow=block;exitX=0.5;exitY=1;entryX=0.5;entryY=0;rounded=0;" edge="1" parent="1" source="Xlf4CUtRPp9jhKxFkze6-5" target="Xlf4CUtRPp9jhKxFkze6-9">
          <mxGeometry relative="1" as="geometry">
            <Array as="points" />
          </mxGeometry>
        </mxCell>
        <mxCell id="Xlf4CUtRPp9jhKxFkze6-81" value="" style="curved=1;startArrow=none;endArrow=block;exitX=0.97;exitY=1;entryX=0.5;entryY=0;rounded=0;" edge="1" parent="1" source="Xlf4CUtRPp9jhKxFkze6-5" target="Xlf4CUtRPp9jhKxFkze6-10">
          <mxGeometry relative="1" as="geometry">
            <Array as="points">
              <mxPoint x="692" y="355" />
            </Array>
          </mxGeometry>
        </mxCell>
        <mxCell id="Xlf4CUtRPp9jhKxFkze6-82" value="" style="curved=1;startArrow=none;endArrow=block;exitX=0.22;exitY=1;entryX=0.5;entryY=0;rounded=0;" edge="1" parent="1" source="Xlf4CUtRPp9jhKxFkze6-6" target="Xlf4CUtRPp9jhKxFkze6-11">
          <mxGeometry relative="1" as="geometry">
            <Array as="points">
              <mxPoint x="998" y="355" />
            </Array>
          </mxGeometry>
        </mxCell>
        <mxCell id="Xlf4CUtRPp9jhKxFkze6-83" value="" style="curved=1;startArrow=none;endArrow=block;exitX=0.87;exitY=1;entryX=0.5;entryY=0;rounded=0;" edge="1" parent="1" source="Xlf4CUtRPp9jhKxFkze6-6" target="Xlf4CUtRPp9jhKxFkze6-12">
          <mxGeometry relative="1" as="geometry">
            <Array as="points">
              <mxPoint x="1308" y="355" />
            </Array>
          </mxGeometry>
        </mxCell>
        <mxCell id="Xlf4CUtRPp9jhKxFkze6-84" value="" style="curved=1;startArrow=none;endArrow=block;exitX=0;exitY=0.82;entryX=0.5;entryY=0;rounded=0;" edge="1" parent="1" source="Xlf4CUtRPp9jhKxFkze6-7" target="Xlf4CUtRPp9jhKxFkze6-13">
          <mxGeometry relative="1" as="geometry">
            <Array as="points">
              <mxPoint x="1596" y="355" />
            </Array>
          </mxGeometry>
        </mxCell>
        <mxCell id="Xlf4CUtRPp9jhKxFkze6-85" value="" style="curved=1;startArrow=none;endArrow=block;exitX=0.25;exitY=1;entryX=0.5;entryY=0;rounded=0;" edge="1" parent="1" source="Xlf4CUtRPp9jhKxFkze6-7" target="Xlf4CUtRPp9jhKxFkze6-14">
          <mxGeometry relative="1" as="geometry">
            <Array as="points">
              <mxPoint x="1885" y="355" />
            </Array>
          </mxGeometry>
        </mxCell>
        <mxCell id="Xlf4CUtRPp9jhKxFkze6-86" value="" style="curved=1;startArrow=none;endArrow=block;exitX=0.75;exitY=1;entryX=0.5;entryY=0;rounded=0;" edge="1" parent="1" source="Xlf4CUtRPp9jhKxFkze6-7" target="Xlf4CUtRPp9jhKxFkze6-15">
          <mxGeometry relative="1" as="geometry">
            <Array as="points">
              <mxPoint x="2162" y="355" />
            </Array>
          </mxGeometry>
        </mxCell>
        <mxCell id="Xlf4CUtRPp9jhKxFkze6-87" value="" style="curved=1;startArrow=none;endArrow=block;exitX=1;exitY=0.83;entryX=0.5;entryY=0;rounded=0;" edge="1" parent="1" source="Xlf4CUtRPp9jhKxFkze6-7" target="Xlf4CUtRPp9jhKxFkze6-16">
          <mxGeometry relative="1" as="geometry">
            <Array as="points">
              <mxPoint x="2439" y="355" />
            </Array>
          </mxGeometry>
        </mxCell>
        <mxCell id="Xlf4CUtRPp9jhKxFkze6-88" value="" style="curved=1;startArrow=none;endArrow=block;exitX=0;exitY=0.53;entryX=0.5;entryY=0;rounded=0;" edge="1" parent="1" source="Xlf4CUtRPp9jhKxFkze6-3" target="Xlf4CUtRPp9jhKxFkze6-17">
          <mxGeometry relative="1" as="geometry">
            <Array as="points">
              <mxPoint x="2985" y="227" />
            </Array>
          </mxGeometry>
        </mxCell>
        <mxCell id="Xlf4CUtRPp9jhKxFkze6-89" value="" style="curved=1;startArrow=none;endArrow=block;exitX=0;exitY=0.55;entryX=0.5;entryY=0;rounded=0;" edge="1" parent="1" source="Xlf4CUtRPp9jhKxFkze6-3" target="Xlf4CUtRPp9jhKxFkze6-18">
          <mxGeometry relative="1" as="geometry">
            <Array as="points">
              <mxPoint x="4091" y="227" />
            </Array>
          </mxGeometry>
        </mxCell>
        <mxCell id="Xlf4CUtRPp9jhKxFkze6-90" value="" style="curved=1;startArrow=none;endArrow=block;exitX=0.5;exitY=1;entryX=0.5;entryY=0;rounded=0;" edge="1" parent="1" source="Xlf4CUtRPp9jhKxFkze6-3" target="Xlf4CUtRPp9jhKxFkze6-19">
          <mxGeometry relative="1" as="geometry">
            <Array as="points" />
          </mxGeometry>
        </mxCell>
        <mxCell id="Xlf4CUtRPp9jhKxFkze6-91" value="" style="curved=1;startArrow=none;endArrow=block;exitX=1;exitY=0.56;entryX=0.5;entryY=0;rounded=0;" edge="1" parent="1" source="Xlf4CUtRPp9jhKxFkze6-3" target="Xlf4CUtRPp9jhKxFkze6-20">
          <mxGeometry relative="1" as="geometry">
            <Array as="points">
              <mxPoint x="8066" y="227" />
            </Array>
          </mxGeometry>
        </mxCell>
        <mxCell id="Xlf4CUtRPp9jhKxFkze6-92" value="" style="curved=1;startArrow=none;endArrow=block;exitX=1;exitY=0.54;entryX=0.5;entryY=0;rounded=0;" edge="1" parent="1" source="Xlf4CUtRPp9jhKxFkze6-3" target="Xlf4CUtRPp9jhKxFkze6-21">
          <mxGeometry relative="1" as="geometry">
            <Array as="points">
              <mxPoint x="9097" y="227" />
            </Array>
          </mxGeometry>
        </mxCell>
        <mxCell id="Xlf4CUtRPp9jhKxFkze6-93" value="" style="curved=1;startArrow=none;endArrow=block;exitX=0;exitY=0.93;entryX=0.5;entryY=0;rounded=0;" edge="1" parent="1" source="Xlf4CUtRPp9jhKxFkze6-17" target="Xlf4CUtRPp9jhKxFkze6-22">
          <mxGeometry relative="1" as="geometry">
            <Array as="points">
              <mxPoint x="2729" y="355" />
            </Array>
          </mxGeometry>
        </mxCell>
        <mxCell id="Xlf4CUtRPp9jhKxFkze6-94" value="" style="curved=1;startArrow=none;endArrow=block;exitX=0.5;exitY=1;entryX=0.5;entryY=0;rounded=0;" edge="1" parent="1" source="Xlf4CUtRPp9jhKxFkze6-17" target="Xlf4CUtRPp9jhKxFkze6-23">
          <mxGeometry relative="1" as="geometry">
            <Array as="points" />
          </mxGeometry>
        </mxCell>
        <mxCell id="Xlf4CUtRPp9jhKxFkze6-95" value="" style="curved=1;startArrow=none;endArrow=block;exitX=1;exitY=0.91;entryX=0.5;entryY=0;rounded=0;" edge="1" parent="1" source="Xlf4CUtRPp9jhKxFkze6-17" target="Xlf4CUtRPp9jhKxFkze6-24">
          <mxGeometry relative="1" as="geometry">
            <Array as="points">
              <mxPoint x="3258" y="355" />
            </Array>
          </mxGeometry>
        </mxCell>
        <mxCell id="Xlf4CUtRPp9jhKxFkze6-96" value="" style="curved=1;startArrow=none;endArrow=block;exitX=0;exitY=0.78;entryX=0.5;entryY=0;rounded=0;" edge="1" parent="1" source="Xlf4CUtRPp9jhKxFkze6-18" target="Xlf4CUtRPp9jhKxFkze6-25">
          <mxGeometry relative="1" as="geometry">
            <Array as="points">
              <mxPoint x="3562" y="355" />
            </Array>
          </mxGeometry>
        </mxCell>
        <mxCell id="Xlf4CUtRPp9jhKxFkze6-97" value="" style="curved=1;startArrow=none;endArrow=block;exitX=0.5;exitY=1;entryX=0.5;entryY=0;rounded=0;" edge="1" parent="1" source="Xlf4CUtRPp9jhKxFkze6-18" target="Xlf4CUtRPp9jhKxFkze6-26">
          <mxGeometry relative="1" as="geometry">
            <Array as="points" />
          </mxGeometry>
        </mxCell>
        <mxCell id="Xlf4CUtRPp9jhKxFkze6-98" value="" style="curved=1;startArrow=none;endArrow=block;exitX=1;exitY=0.71;entryX=0.5;entryY=0;rounded=0;" edge="1" parent="1" source="Xlf4CUtRPp9jhKxFkze6-18" target="Xlf4CUtRPp9jhKxFkze6-27">
          <mxGeometry relative="1" as="geometry">
            <Array as="points">
              <mxPoint x="4806" y="355" />
            </Array>
          </mxGeometry>
        </mxCell>
        <mxCell id="Xlf4CUtRPp9jhKxFkze6-99" value="" style="curved=1;startArrow=none;endArrow=block;exitX=0;exitY=0.91;entryX=0.5;entryY=0;rounded=0;" edge="1" parent="1" source="Xlf4CUtRPp9jhKxFkze6-25" target="Xlf4CUtRPp9jhKxFkze6-28">
          <mxGeometry relative="1" as="geometry">
            <Array as="points">
              <mxPoint x="3301" y="483" />
            </Array>
          </mxGeometry>
        </mxCell>
        <mxCell id="Xlf4CUtRPp9jhKxFkze6-100" value="" style="curved=1;startArrow=none;endArrow=block;exitX=0.5;exitY=1;entryX=0.5;entryY=0;rounded=0;" edge="1" parent="1" source="Xlf4CUtRPp9jhKxFkze6-25" target="Xlf4CUtRPp9jhKxFkze6-29">
          <mxGeometry relative="1" as="geometry">
            <Array as="points" />
          </mxGeometry>
        </mxCell>
        <mxCell id="Xlf4CUtRPp9jhKxFkze6-101" value="" style="curved=1;startArrow=none;endArrow=block;exitX=1;exitY=0.91;entryX=0.5;entryY=0;rounded=0;" edge="1" parent="1" source="Xlf4CUtRPp9jhKxFkze6-25" target="Xlf4CUtRPp9jhKxFkze6-30">
          <mxGeometry relative="1" as="geometry">
            <Array as="points">
              <mxPoint x="3825" y="483" />
            </Array>
          </mxGeometry>
        </mxCell>
        <mxCell id="Xlf4CUtRPp9jhKxFkze6-102" value="" style="curved=1;startArrow=none;endArrow=block;exitX=0.5;exitY=1;entryX=0.5;entryY=0;rounded=0;" edge="1" parent="1" source="Xlf4CUtRPp9jhKxFkze6-26" target="Xlf4CUtRPp9jhKxFkze6-31">
          <mxGeometry relative="1" as="geometry">
            <Array as="points" />
          </mxGeometry>
        </mxCell>
        <mxCell id="Xlf4CUtRPp9jhKxFkze6-103" value="" style="curved=1;startArrow=none;endArrow=block;exitX=0;exitY=0.85;entryX=0.5;entryY=0;rounded=0;" edge="1" parent="1" source="Xlf4CUtRPp9jhKxFkze6-27" target="Xlf4CUtRPp9jhKxFkze6-32">
          <mxGeometry relative="1" as="geometry">
            <Array as="points">
              <mxPoint x="4370" y="483" />
            </Array>
          </mxGeometry>
        </mxCell>
        <mxCell id="Xlf4CUtRPp9jhKxFkze6-104" value="" style="curved=1;startArrow=none;endArrow=block;exitX=0.26;exitY=1;entryX=0.5;entryY=0;rounded=0;" edge="1" parent="1" source="Xlf4CUtRPp9jhKxFkze6-27" target="Xlf4CUtRPp9jhKxFkze6-33">
          <mxGeometry relative="1" as="geometry">
            <Array as="points">
              <mxPoint x="4658" y="483" />
            </Array>
          </mxGeometry>
        </mxCell>
        <mxCell id="Xlf4CUtRPp9jhKxFkze6-105" value="" style="curved=1;startArrow=none;endArrow=block;exitX=0.75;exitY=1;entryX=0.5;entryY=0;rounded=0;" edge="1" parent="1" source="Xlf4CUtRPp9jhKxFkze6-27" target="Xlf4CUtRPp9jhKxFkze6-34">
          <mxGeometry relative="1" as="geometry">
            <Array as="points">
              <mxPoint x="4954" y="483" />
            </Array>
          </mxGeometry>
        </mxCell>
        <mxCell id="Xlf4CUtRPp9jhKxFkze6-106" value="" style="curved=1;startArrow=none;endArrow=block;exitX=1;exitY=0.85;entryX=0.5;entryY=0;rounded=0;" edge="1" parent="1" source="Xlf4CUtRPp9jhKxFkze6-27" target="Xlf4CUtRPp9jhKxFkze6-35">
          <mxGeometry relative="1" as="geometry">
            <Array as="points">
              <mxPoint x="5237" y="483" />
            </Array>
          </mxGeometry>
        </mxCell>
        <mxCell id="Xlf4CUtRPp9jhKxFkze6-107" value="" style="curved=1;startArrow=none;endArrow=block;exitX=0;exitY=0.64;entryX=0.5;entryY=0;rounded=0;" edge="1" parent="1" source="Xlf4CUtRPp9jhKxFkze6-19" target="Xlf4CUtRPp9jhKxFkze6-36">
          <mxGeometry relative="1" as="geometry">
            <Array as="points">
              <mxPoint x="5591" y="355" />
            </Array>
          </mxGeometry>
        </mxCell>
        <mxCell id="Xlf4CUtRPp9jhKxFkze6-108" value="" style="curved=1;startArrow=none;endArrow=block;exitX=0.5;exitY=1;entryX=0.5;entryY=0;rounded=0;" edge="1" parent="1" source="Xlf4CUtRPp9jhKxFkze6-19" target="Xlf4CUtRPp9jhKxFkze6-37">
          <mxGeometry relative="1" as="geometry">
            <Array as="points">
              <mxPoint x="6363" y="355" />
            </Array>
          </mxGeometry>
        </mxCell>
        <mxCell id="Xlf4CUtRPp9jhKxFkze6-109" value="" style="curved=1;startArrow=none;endArrow=block;exitX=1;exitY=0.61;entryX=0.5;entryY=0;rounded=0;" edge="1" parent="1" source="Xlf4CUtRPp9jhKxFkze6-19" target="Xlf4CUtRPp9jhKxFkze6-38">
          <mxGeometry relative="1" as="geometry">
            <Array as="points">
              <mxPoint x="7371" y="355" />
            </Array>
          </mxGeometry>
        </mxCell>
        <mxCell id="Xlf4CUtRPp9jhKxFkze6-110" value="" style="curved=1;startArrow=none;endArrow=block;exitX=0.29;exitY=1;entryX=0.5;entryY=0;rounded=0;" edge="1" parent="1" source="Xlf4CUtRPp9jhKxFkze6-36" target="Xlf4CUtRPp9jhKxFkze6-39">
          <mxGeometry relative="1" as="geometry">
            <Array as="points">
              <mxPoint x="5476" y="483" />
            </Array>
          </mxGeometry>
        </mxCell>
        <mxCell id="Xlf4CUtRPp9jhKxFkze6-111" value="" style="curved=1;startArrow=none;endArrow=block;exitX=0.7;exitY=1;entryX=0.5;entryY=0;rounded=0;" edge="1" parent="1" source="Xlf4CUtRPp9jhKxFkze6-36" target="Xlf4CUtRPp9jhKxFkze6-40">
          <mxGeometry relative="1" as="geometry">
            <Array as="points">
              <mxPoint x="5706" y="483" />
            </Array>
          </mxGeometry>
        </mxCell>
        <mxCell id="Xlf4CUtRPp9jhKxFkze6-112" value="" style="curved=1;startArrow=none;endArrow=block;exitX=0;exitY=0.88;entryX=0.5;entryY=0;rounded=0;" edge="1" parent="1" source="Xlf4CUtRPp9jhKxFkze6-37" target="Xlf4CUtRPp9jhKxFkze6-41">
          <mxGeometry relative="1" as="geometry">
            <Array as="points">
              <mxPoint x="5965" y="483" />
            </Array>
          </mxGeometry>
        </mxCell>
        <mxCell id="Xlf4CUtRPp9jhKxFkze6-113" value="" style="curved=1;startArrow=none;endArrow=block;exitX=0.28;exitY=1;entryX=0.5;entryY=0;rounded=0;" edge="1" parent="1" source="Xlf4CUtRPp9jhKxFkze6-37" target="Xlf4CUtRPp9jhKxFkze6-42">
          <mxGeometry relative="1" as="geometry">
            <Array as="points">
              <mxPoint x="6230" y="483" />
            </Array>
          </mxGeometry>
        </mxCell>
        <mxCell id="Xlf4CUtRPp9jhKxFkze6-114" value="" style="curved=1;startArrow=none;endArrow=block;exitX=0.71;exitY=1;entryX=0.5;entryY=0;rounded=0;" edge="1" parent="1" source="Xlf4CUtRPp9jhKxFkze6-37" target="Xlf4CUtRPp9jhKxFkze6-43">
          <mxGeometry relative="1" as="geometry">
            <Array as="points">
              <mxPoint x="6494" y="483" />
            </Array>
          </mxGeometry>
        </mxCell>
        <mxCell id="Xlf4CUtRPp9jhKxFkze6-115" value="" style="curved=1;startArrow=none;endArrow=block;exitX=1;exitY=0.86;entryX=0.5;entryY=0;rounded=0;" edge="1" parent="1" source="Xlf4CUtRPp9jhKxFkze6-37" target="Xlf4CUtRPp9jhKxFkze6-44">
          <mxGeometry relative="1" as="geometry">
            <Array as="points">
              <mxPoint x="6784" y="483" />
            </Array>
          </mxGeometry>
        </mxCell>
        <mxCell id="Xlf4CUtRPp9jhKxFkze6-116" value="" style="curved=1;startArrow=none;endArrow=block;exitX=0;exitY=0.96;entryX=0.5;entryY=0;rounded=0;" edge="1" parent="1" source="Xlf4CUtRPp9jhKxFkze6-38" target="Xlf4CUtRPp9jhKxFkze6-45">
          <mxGeometry relative="1" as="geometry">
            <Array as="points">
              <mxPoint x="7091" y="483" />
            </Array>
          </mxGeometry>
        </mxCell>
        <mxCell id="Xlf4CUtRPp9jhKxFkze6-117" value="" style="curved=1;startArrow=none;endArrow=block;exitX=0.52;exitY=1;entryX=0.5;entryY=0;rounded=0;" edge="1" parent="1" source="Xlf4CUtRPp9jhKxFkze6-38" target="Xlf4CUtRPp9jhKxFkze6-46">
          <mxGeometry relative="1" as="geometry">
            <Array as="points">
              <mxPoint x="7383" y="483" />
            </Array>
          </mxGeometry>
        </mxCell>
        <mxCell id="Xlf4CUtRPp9jhKxFkze6-118" value="" style="curved=1;startArrow=none;endArrow=block;exitX=1;exitY=0.94;entryX=0.5;entryY=0;rounded=0;" edge="1" parent="1" source="Xlf4CUtRPp9jhKxFkze6-38" target="Xlf4CUtRPp9jhKxFkze6-47">
          <mxGeometry relative="1" as="geometry">
            <Array as="points">
              <mxPoint x="7667" y="483" />
            </Array>
          </mxGeometry>
        </mxCell>
        <mxCell id="Xlf4CUtRPp9jhKxFkze6-119" value="" style="curved=1;startArrow=none;endArrow=block;exitX=0;exitY=0.78;entryX=0.5;entryY=0;rounded=0;" edge="1" parent="1" source="Xlf4CUtRPp9jhKxFkze6-20" target="Xlf4CUtRPp9jhKxFkze6-48">
          <mxGeometry relative="1" as="geometry">
            <Array as="points">
              <mxPoint x="7646" y="355" />
            </Array>
          </mxGeometry>
        </mxCell>
        <mxCell id="Xlf4CUtRPp9jhKxFkze6-120" value="" style="curved=1;startArrow=none;endArrow=block;exitX=0.19;exitY=1;entryX=0.5;entryY=0;rounded=0;" edge="1" parent="1" source="Xlf4CUtRPp9jhKxFkze6-20" target="Xlf4CUtRPp9jhKxFkze6-49">
          <mxGeometry relative="1" as="geometry">
            <Array as="points">
              <mxPoint x="7921" y="355" />
            </Array>
          </mxGeometry>
        </mxCell>
        <mxCell id="Xlf4CUtRPp9jhKxFkze6-121" value="" style="curved=1;startArrow=none;endArrow=block;exitX=0.77;exitY=1;entryX=0.5;entryY=0;rounded=0;" edge="1" parent="1" source="Xlf4CUtRPp9jhKxFkze6-20" target="Xlf4CUtRPp9jhKxFkze6-50">
          <mxGeometry relative="1" as="geometry">
            <Array as="points">
              <mxPoint x="8188" y="355" />
            </Array>
          </mxGeometry>
        </mxCell>
        <mxCell id="Xlf4CUtRPp9jhKxFkze6-122" value="" style="curved=1;startArrow=none;endArrow=block;exitX=1;exitY=0.81;entryX=0.5;entryY=0;rounded=0;" edge="1" parent="1" source="Xlf4CUtRPp9jhKxFkze6-20" target="Xlf4CUtRPp9jhKxFkze6-51">
          <mxGeometry relative="1" as="geometry">
            <Array as="points">
              <mxPoint x="8441" y="355" />
            </Array>
          </mxGeometry>
        </mxCell>
        <mxCell id="Xlf4CUtRPp9jhKxFkze6-123" value="" style="curved=1;startArrow=none;endArrow=block;exitX=0;exitY=0.77;entryX=0.5;entryY=0;rounded=0;" edge="1" parent="1" source="Xlf4CUtRPp9jhKxFkze6-21" target="Xlf4CUtRPp9jhKxFkze6-52">
          <mxGeometry relative="1" as="geometry">
            <Array as="points">
              <mxPoint x="8717" y="355" />
            </Array>
          </mxGeometry>
        </mxCell>
        <mxCell id="Xlf4CUtRPp9jhKxFkze6-124" value="" style="curved=1;startArrow=none;endArrow=block;exitX=0.2;exitY=1;entryX=0.5;entryY=0;rounded=0;" edge="1" parent="1" source="Xlf4CUtRPp9jhKxFkze6-21" target="Xlf4CUtRPp9jhKxFkze6-53">
          <mxGeometry relative="1" as="geometry">
            <Array as="points">
              <mxPoint x="8973" y="355" />
            </Array>
          </mxGeometry>
        </mxCell>
        <mxCell id="Xlf4CUtRPp9jhKxFkze6-125" value="" style="curved=1;startArrow=none;endArrow=block;exitX=0.75;exitY=1;entryX=0.5;entryY=0;rounded=0;" edge="1" parent="1" source="Xlf4CUtRPp9jhKxFkze6-21" target="Xlf4CUtRPp9jhKxFkze6-54">
          <mxGeometry relative="1" as="geometry">
            <Array as="points">
              <mxPoint x="9198" y="355" />
            </Array>
          </mxGeometry>
        </mxCell>
        <mxCell id="Xlf4CUtRPp9jhKxFkze6-126" value="" style="curved=1;startArrow=none;endArrow=block;exitX=1;exitY=0.8;entryX=0.5;entryY=0;rounded=0;" edge="1" parent="1" source="Xlf4CUtRPp9jhKxFkze6-21" target="Xlf4CUtRPp9jhKxFkze6-55">
          <mxGeometry relative="1" as="geometry">
            <Array as="points">
              <mxPoint x="9444" y="355" />
            </Array>
          </mxGeometry>
        </mxCell>
        <mxCell id="Xlf4CUtRPp9jhKxFkze6-127" value="" style="curved=1;startArrow=none;endArrow=block;exitX=0;exitY=0.58;entryX=0.5;entryY=0;rounded=0;" edge="1" parent="1" source="Xlf4CUtRPp9jhKxFkze6-4" target="Xlf4CUtRPp9jhKxFkze6-56">
          <mxGeometry relative="1" as="geometry">
            <Array as="points">
              <mxPoint x="9999" y="227" />
            </Array>
          </mxGeometry>
        </mxCell>
        <mxCell id="Xlf4CUtRPp9jhKxFkze6-128" value="" style="curved=1;startArrow=none;endArrow=block;exitX=0;exitY=0.75;entryX=0.5;entryY=0;rounded=0;" edge="1" parent="1" source="Xlf4CUtRPp9jhKxFkze6-4" target="Xlf4CUtRPp9jhKxFkze6-57">
          <mxGeometry relative="1" as="geometry">
            <Array as="points">
              <mxPoint x="10932" y="227" />
            </Array>
          </mxGeometry>
        </mxCell>
        <mxCell id="Xlf4CUtRPp9jhKxFkze6-129" value="" style="curved=1;startArrow=none;endArrow=block;exitX=1;exitY=0.69;entryX=0.5;entryY=0;rounded=0;" edge="1" parent="1" source="Xlf4CUtRPp9jhKxFkze6-4" target="Xlf4CUtRPp9jhKxFkze6-58">
          <mxGeometry relative="1" as="geometry">
            <Array as="points">
              <mxPoint x="11922" y="227" />
            </Array>
          </mxGeometry>
        </mxCell>
        <mxCell id="Xlf4CUtRPp9jhKxFkze6-130" value="" style="curved=1;startArrow=none;endArrow=block;exitX=1;exitY=0.58;entryX=0.5;entryY=0;rounded=0;" edge="1" parent="1" source="Xlf4CUtRPp9jhKxFkze6-4" target="Xlf4CUtRPp9jhKxFkze6-59">
          <mxGeometry relative="1" as="geometry">
            <Array as="points">
              <mxPoint x="12766" y="227" />
            </Array>
          </mxGeometry>
        </mxCell>
        <mxCell id="Xlf4CUtRPp9jhKxFkze6-131" value="" style="curved=1;startArrow=none;endArrow=block;exitX=0;exitY=0.94;entryX=0.5;entryY=0;rounded=0;" edge="1" parent="1" source="Xlf4CUtRPp9jhKxFkze6-56" target="Xlf4CUtRPp9jhKxFkze6-60">
          <mxGeometry relative="1" as="geometry">
            <Array as="points">
              <mxPoint x="9709" y="355" />
            </Array>
          </mxGeometry>
        </mxCell>
        <mxCell id="Xlf4CUtRPp9jhKxFkze6-132" value="" style="curved=1;startArrow=none;endArrow=block;exitX=0.48;exitY=1;entryX=0.5;entryY=0;rounded=0;" edge="1" parent="1" source="Xlf4CUtRPp9jhKxFkze6-56" target="Xlf4CUtRPp9jhKxFkze6-61">
          <mxGeometry relative="1" as="geometry">
            <Array as="points">
              <mxPoint x="9987" y="355" />
            </Array>
          </mxGeometry>
        </mxCell>
        <mxCell id="Xlf4CUtRPp9jhKxFkze6-133" value="" style="curved=1;startArrow=none;endArrow=block;exitX=0.99;exitY=1;entryX=0.5;entryY=0;rounded=0;" edge="1" parent="1" source="Xlf4CUtRPp9jhKxFkze6-56" target="Xlf4CUtRPp9jhKxFkze6-62">
          <mxGeometry relative="1" as="geometry">
            <Array as="points">
              <mxPoint x="10247" y="355" />
            </Array>
          </mxGeometry>
        </mxCell>
        <mxCell id="Xlf4CUtRPp9jhKxFkze6-134" value="" style="curved=1;startArrow=none;endArrow=block;exitX=0;exitY=0.79;entryX=0.5;entryY=0;rounded=0;" edge="1" parent="1" source="Xlf4CUtRPp9jhKxFkze6-57" target="Xlf4CUtRPp9jhKxFkze6-63">
          <mxGeometry relative="1" as="geometry">
            <Array as="points">
              <mxPoint x="10503" y="355" />
            </Array>
          </mxGeometry>
        </mxCell>
        <mxCell id="Xlf4CUtRPp9jhKxFkze6-135" value="" style="curved=1;startArrow=none;endArrow=block;exitX=0.19;exitY=1;entryX=0.5;entryY=0;rounded=0;" edge="1" parent="1" source="Xlf4CUtRPp9jhKxFkze6-57" target="Xlf4CUtRPp9jhKxFkze6-64">
          <mxGeometry relative="1" as="geometry">
            <Array as="points">
              <mxPoint x="10776" y="355" />
            </Array>
          </mxGeometry>
        </mxCell>
        <mxCell id="Xlf4CUtRPp9jhKxFkze6-136" value="" style="curved=1;startArrow=none;endArrow=block;exitX=0.77;exitY=1;entryX=0.5;entryY=0;rounded=0;" edge="1" parent="1" source="Xlf4CUtRPp9jhKxFkze6-57" target="Xlf4CUtRPp9jhKxFkze6-65">
          <mxGeometry relative="1" as="geometry">
            <Array as="points">
              <mxPoint x="11065" y="355" />
            </Array>
          </mxGeometry>
        </mxCell>
        <mxCell id="Xlf4CUtRPp9jhKxFkze6-137" value="" style="curved=1;startArrow=none;endArrow=block;exitX=1;exitY=0.8;entryX=0.5;entryY=0;rounded=0;" edge="1" parent="1" source="Xlf4CUtRPp9jhKxFkze6-57" target="Xlf4CUtRPp9jhKxFkze6-66">
          <mxGeometry relative="1" as="geometry">
            <Array as="points">
              <mxPoint x="11347" y="355" />
            </Array>
          </mxGeometry>
        </mxCell>
        <mxCell id="Xlf4CUtRPp9jhKxFkze6-138" value="" style="curved=1;startArrow=none;endArrow=block;exitX=0;exitY=0.99;entryX=0.5;entryY=0;rounded=0;" edge="1" parent="1" source="Xlf4CUtRPp9jhKxFkze6-58" target="Xlf4CUtRPp9jhKxFkze6-67">
          <mxGeometry relative="1" as="geometry">
            <Array as="points">
              <mxPoint x="11626" y="355" />
            </Array>
          </mxGeometry>
        </mxCell>
        <mxCell id="Xlf4CUtRPp9jhKxFkze6-139" value="" style="curved=1;startArrow=none;endArrow=block;exitX=0.48;exitY=1;entryX=0.5;entryY=0;rounded=0;" edge="1" parent="1" source="Xlf4CUtRPp9jhKxFkze6-58" target="Xlf4CUtRPp9jhKxFkze6-68">
          <mxGeometry relative="1" as="geometry">
            <Array as="points">
              <mxPoint x="11910" y="355" />
            </Array>
          </mxGeometry>
        </mxCell>
        <mxCell id="Xlf4CUtRPp9jhKxFkze6-140" value="" style="curved=1;startArrow=none;endArrow=block;exitX=0.95;exitY=1;entryX=0.5;entryY=0;rounded=0;" edge="1" parent="1" source="Xlf4CUtRPp9jhKxFkze6-58" target="Xlf4CUtRPp9jhKxFkze6-69">
          <mxGeometry relative="1" as="geometry">
            <Array as="points">
              <mxPoint x="12182" y="355" />
            </Array>
          </mxGeometry>
        </mxCell>
        <mxCell id="Xlf4CUtRPp9jhKxFkze6-141" value="" style="curved=1;startArrow=none;endArrow=block;exitX=0;exitY=0.89;entryX=0.5;entryY=0;rounded=0;" edge="1" parent="1" source="Xlf4CUtRPp9jhKxFkze6-59" target="Xlf4CUtRPp9jhKxFkze6-70">
          <mxGeometry relative="1" as="geometry">
            <Array as="points">
              <mxPoint x="12457" y="355" />
            </Array>
          </mxGeometry>
        </mxCell>
        <mxCell id="Xlf4CUtRPp9jhKxFkze6-142" value="" style="curved=1;startArrow=none;endArrow=block;exitX=0.48;exitY=1;entryX=0.5;entryY=0;rounded=0;" edge="1" parent="1" source="Xlf4CUtRPp9jhKxFkze6-59" target="Xlf4CUtRPp9jhKxFkze6-71">
          <mxGeometry relative="1" as="geometry">
            <Array as="points">
              <mxPoint x="12754" y="355" />
            </Array>
          </mxGeometry>
        </mxCell>
        <mxCell id="Xlf4CUtRPp9jhKxFkze6-143" value="" style="curved=1;startArrow=none;endArrow=block;exitX=1;exitY=0.91;entryX=0.5;entryY=0;rounded=0;" edge="1" parent="1" source="Xlf4CUtRPp9jhKxFkze6-59" target="Xlf4CUtRPp9jhKxFkze6-72">
          <mxGeometry relative="1" as="geometry">
            <Array as="points">
              <mxPoint x="13054" y="355" />
            </Array>
          </mxGeometry>
        </mxCell>
      </root>
    </mxGraphModel>
  </diagram>
</mxfile>
